Coordinates
version=1
nRows=6
nColumns=63
inDegrees=yes

Units are S.I. units (second, meters, Newtons, ...)
If the header above contains a line with 'inDegrees', this indicates whether rotational values are in degrees (yes) or radians (no).

endheader
time	pelvis_tilt	pelvis_list	pelvis_rotation	pelvis_tx	pelvis_ty	pelvis_tz	hip_flexion_r	hip_adduction_r	hip_rotation_r	knee_angle_r	knee_angle_r_beta	ankle_angle_r	subtalar_angle_r	mtp_angle_r	hip_flexion_l	hip_adduction_l	hip_rotation_l	knee_angle_l	knee_angle_l_beta	ankle_angle_l	subtalar_angle_l	mtp_angle_l	L5_S1_Flex_Ext	L5_S1_Lat_Bending	L5_S1_axial_rotation	L4_L5_Flex_Ext	L4_L5_Lat_Bending	L4_L5_axial_rotation	L3_L4_Flex_Ext	L3_L4_Lat_Bending	L3_L4_axial_rotation	L2_L3_Flex_Ext	L2_L3_Lat_Bending	L2_L3_axial_rotation	L1_L2_Flex_Ext	L1_L2_Lat_Bending	L1_L2_axial_rotation	L1_T12_Flex_Ext	L1_T12_Lat_Bending	L1_T12_axial_rotation	Abs_r3	Abs_r2	Abs_r1	Abs_t1	Abs_t2	neck_flexion	neck_bending	neck_rotation	arm_flex_r	arm_add_r	arm_rot_r	elbow_flex_r	pro_sup_r	wrist_flex_r	wrist_dev_r	arm_flex_l	arm_add_l	arm_rot_l	elbow_flex_l	pro_sup_l	wrist_flex_l	wrist_dev_l
      4.90000000	      4.51058512	     -0.44655115	    174.39986202	      2.54591009	      0.89003728	      0.58962510	     12.52514813	     -2.20687879	     -9.79365613	     23.37774997	      0.40801871	     26.07659834	      3.04679616	      0.00000000	      6.24405833	     -1.07422558	     -1.91178378	     13.78791129	      0.24064445	     16.77371545	    -18.15995940	      0.00000000	      0.00097041	     -0.26281807	     -0.85245276	      0.00180215	     -0.34954803	     -0.90573105	      0.00159429	     -0.63901586	     -0.90573105	      0.00110908	     -0.63901586	     -0.74589616	      0.00090112	     -0.53593861	     -0.69261786	      0.00055449	     -0.40710519	     -0.63933957	      0.00693154	     -2.97305058	     -4.74108649	      0.00000000	      0.00000000	      0.00000000	      0.00000000	      0.00000000	      0.35683160	    -12.50980710	     59.22027121	     22.51087515	     55.46163277	      0.00000000	      5.00000014	    -20.00514949	     -3.16428575	    -11.27149931	     28.75976253	     55.95425876	      0.00000000	      5.00000014
      4.93333333	      4.51380872	     -0.39490796	    174.32230871	      2.54615239	      0.89016082	      0.58980365	     12.47336403	     -2.12017588	     -9.68738394	     23.12431086	      0.40359536	     25.90723634	      2.89305324	      0.00000000	      6.30629115	     -1.13704475	     -2.37201436	     13.90989461	      0.24277346	     16.82605829	    -17.52619354	      0.00000000	      0.00079015	     -0.25643802	     -0.82815744	      0.00146739	     -0.34106256	     -0.87991728	      0.00129814	     -0.62350340	     -0.87991728	      0.00090306	     -0.62350340	     -0.72463776	      0.00073373	     -0.52292841	     -0.67287792	      0.00045149	     -0.39722249	     -0.62111808	      0.00564397	     -2.90087814	     -4.60596322	      0.00000000	      0.00000000	      0.00000000	      0.00000000	      0.00000000	      0.35630809	    -12.56180574	     59.20409635	     22.47250293	     55.19375558	      0.00000000	      5.00000014	    -19.85501595	     -2.96777727	    -11.50521061	     28.61090892	     55.63588720	      0.00000000	      5.00000014
      4.96666667	      4.43320358	     -0.46163201	    174.10226675	      2.54618402	      0.89037750	      0.58982196	     12.32442991	     -2.16126109	     -9.57077682	     22.93309326	      0.40025798	     26.00986133	      2.93849420	      0.00000000	      6.19205457	     -1.00735308	     -2.29047678	     13.84527995	      0.24164572	     16.57221317	    -17.69923660	      0.00000000	      0.00009910	     -0.26278732	     -0.75902844	      0.00018404	     -0.34950713	     -0.80646772	      0.00016281	     -0.63894108	     -0.80646772	      0.00011326	     -0.63894108	     -0.66414988	      0.00009203	     -0.53587590	     -0.61671061	      0.00005663	     -0.40705755	     -0.56927133	      0.00070788	     -2.97270268	     -4.22148847	      0.00000000	      0.00000000	      0.00000000	      0.00000000	      0.00000000	      0.33829892	    -12.55954123	     59.18619608	     22.32669534	     55.04653687	      0.00000000	      5.00000014	    -19.60928724	     -2.59896820	    -12.32291022	     28.26145336	     55.33410306	      0.00000000	      5.00000014
      5.00000000	      4.35415462	     -0.82077654	    173.70984397	      2.54641561	      0.89034960	      0.58959455	     12.50675430	     -2.60615565	     -9.59931190	     23.35621283	      0.40764281	     26.66633701	      3.69174512	      0.00000000	      5.96037487	     -0.54320574	     -2.34730348	     13.42957546	      0.23439031	     16.33755758	    -18.18775021	      0.00000000	     -0.00003148	     -0.31173568	     -0.67302063	     -0.00005846	     -0.41460846	     -0.71508442	     -0.00005172	     -0.75795414	     -0.71508442	     -0.00003598	     -0.75795414	     -0.58889305	     -0.00002923	     -0.63569140	     -0.54682926	     -0.00001799	     -0.48287857	     -0.50476547	     -0.00022486	     -3.52641638	     -3.74313885	      0.00000000	      0.00000000	      0.00000000	      0.00000000	      0.00000000	      0.36093275	    -12.43778234	     59.57690450	     22.23016240	     54.19018885	      0.00000000	      5.00000014	    -19.40847402	      0.07850891	    -23.80335376	     29.24649380	     52.38991288	      0.00000000	      5.00000014
      5.03333333	      4.28880247	     -0.95497593	    173.54501571	      2.54649934	      0.89041193	      0.58947892	     12.50714253	     -2.88411894	    -10.12411310	     23.52177019	      0.41053234	     27.18993287	      4.83350573	      0.00000000	      5.88948130	     -0.37956803	     -2.77634529	     13.35599730	      0.23310613	     16.56290101	    -18.23740788	      0.00000000	     -0.00040664	     -0.32825261	     -0.62937957	     -0.00075517	     -0.43657597	     -0.66871579	     -0.00066807	     -0.79811340	     -0.66871579	     -0.00046475	     -0.79811340	     -0.55070712	     -0.00037761	     -0.66937273	     -0.51137090	     -0.00023235	     -0.50846330	     -0.47203468	     -0.00290459	     -3.71325920	     -3.50042036	      0.00000000	      0.00000000	      0.00000000	      0.00000000	      0.00000000	      0.38099780	    -12.32266147	     59.77577048	     22.02805133	     54.28551080	      0.00000000	      5.00000014	    -19.17465519	      0.97457626	    -27.56290375	     29.51944432	     52.25909876	      0.00000000	      5.00000014
      5.06666667	      4.23559273	     -0.96344011	    173.24788560	      2.54647915	      0.89042930	      0.58903630	     12.54529886	     -2.91047682	    -10.05290597	     23.69107001	      0.41348717	     27.45078147	      5.34928681	      0.00000000	      5.79424498	     -0.38850850	     -3.36867117	     13.35376375	      0.23306715	     16.92343232	    -18.25555507	      0.00000000	     -0.00042014	     -0.32994298	     -0.56180750	     -0.00078025	     -0.43882416	     -0.59692047	     -0.00069026	     -0.80222336	     -0.59692047	     -0.00048018	     -0.80222336	     -0.49158157	     -0.00039015	     -0.67281972	     -0.45646860	     -0.00024007	     -0.51108167	     -0.42135563	     -0.00300105	     -3.73238096	     -3.12460479	      0.00000000	      0.00000000	      0.00000000	      0.00000000	      0.00000000	      0.21325829	    -12.09942037	     58.95389158	     21.73864935	     54.63911398	      0.00000000	      5.00000014	    -19.08912390	      1.21192912	    -28.58203464	     29.57491721	     52.72546539	      0.00000000	      5.00000014
